HIERARCHY
ROOT Hips
{
	OFFSET -0.001795 -0.223333 0.028219
	CHANNELS 6 Xposition Yposition Zposition Zrotation Yrotation Xrotation 
	JOINT LeftUpLeg
	{
		OFFSET 0.069520 -0.091406 -0.006815
		CHANNELS 3 Zrotation Yrotation Xrotation
		JOINT LeftLeg
		{
			OFFSET 0.034277 -0.375199 -0.004496
			CHANNELS 3 Zrotation Yrotation Xrotation
			JOINT LeftFoot
			{
				OFFSET -0.013596 -0.397961 -0.043693
				CHANNELS 3 Zrotation Yrotation Xrotation
				JOINT LeftToe
				{
					OFFSET 0.026358 -0.055791 0.119288
					CHANNELS 3 Zrotation Yrotation Xrotation
					End Site
					{
						OFFSET 0.000000 0.000000 0.000000
					}
				}
			}
		}
	}
	JOINT RightUpLeg
	{
		OFFSET -0.067670 -0.090522 -0.004320
		CHANNELS 3 Zrotation Yrotation Xrotation
		JOINT RightLeg
		{
			OFFSET -0.038290 -0.382569 -0.008850
			CHANNELS 3 Zrotation Yrotation Xrotation
			JOINT RightFoot
			{
				OFFSET 0.015774 -0.398415 -0.042312
				CHANNELS 3 Zrotation Yrotation Xrotation
				JOINT RightToe
				{
					OFFSET -0.025372 -0.048144 0.123348
					CHANNELS 3 Zrotation Yrotation Xrotation
					End Site
					{
						OFFSET 0.000000 0.000000 0.000000
					}
				}
			}
		}
	}
	JOINT Spine
	{
		OFFSET -0.002533 0.108963 -0.026696
		CHANNELS 3 Zrotation Yrotation Xrotation
		JOINT Spine1
		{
			OFFSET 0.005487 0.135180 0.001092
			CHANNELS 3 Zrotation Yrotation Xrotation
			JOINT Spine2
			{
				OFFSET 0.001457 0.052922 0.025425
				CHANNELS 3 Zrotation Yrotation Xrotation
				JOINT Neck
				{
					OFFSET -0.002778 0.213870 -0.042857
					CHANNELS 3 Zrotation Yrotation Xrotation
					JOINT Head
					{
						OFFSET 0.005152 0.064970 0.051349
						CHANNELS 3 Zrotation Yrotation Xrotation
						End Site
						{
							OFFSET 0.000000 0.000000 0.000000
						}
					}
				}
				JOINT LeftShoulder
				{
					OFFSET 0.078845 0.121749 -0.034090
					CHANNELS 3 Zrotation Yrotation Xrotation
					JOINT LeftArm
					{
						OFFSET 0.090977 0.030469 -0.008868
						CHANNELS 3 Zrotation Yrotation Xrotation
						JOINT LeftForeArm
						{
							OFFSET 0.259612 -0.012772 -0.027456
							CHANNELS 3 Zrotation Yrotation Xrotation
							JOINT LeftHand
							{
								OFFSET 0.249234 0.008986 -0.001171
								CHANNELS 3 Zrotation Yrotation Xrotation
								End Site
								{
									OFFSET 0.000000 0.000000 0.000000
								}
							}
						}
					}
				}
				JOINT RightShoulder
				{
					OFFSET -0.081759 0.118833 -0.038615
					CHANNELS 3 Zrotation Yrotation Xrotation
					JOINT RightArm
					{
						OFFSET -0.096012 0.032551 -0.009143
						CHANNELS 3 Zrotation Yrotation Xrotation
						JOINT RightForeArm
						{
							OFFSET -0.253742 -0.013329 -0.021401
							CHANNELS 3 Zrotation Yrotation Xrotation
							JOINT RightHand
							{
								OFFSET -0.255298 0.007772 -0.005559
								CHANNELS 3 Zrotation Yrotation Xrotation
								End Site
								{
									OFFSET 0.000000 0.000000 0.000000
								}
							}
						}
					}
				}
			}
		}
	}
}
MOTION
Frames: 7
Frame Time: 0.050000
-0.001419 0.963241 -0.054775 1.165570 8.240682 -0.666388 3.448131 0.452525 12.386799 -5.389458 0.185500 -13.526665 0.391602 8.726983 20.525857 0.000000 0.000000 0.000000 -3.841410 -0.817515 10.243380 1.871577 -0.537069 -10.661445 -0.135488 -6.272136 20.673520 0.000000 0.000000 0.000000 -5.566243 -0.145567 -7.796332 5.358350 -1.005558 -17.540708 -1.400869 -5.201027 31.062083 0.024032 1.307815 -23.221857 0.000000 0.000000 0.000000 -13.669257 1.458469 -1.337777 -50.799916 -39.546388 8.841901 132.207197 -76.520925 -112.605357 0.000000 0.000000 0.000000 -7.117485 10.286396 3.072113 20.740007 57.894873 4.594144 -79.517493 38.446630 -27.837854 0.000000 0.000000 0.000000 
-0.001818 0.963214 -0.056630 1.242328 8.320430 -0.583738 3.284170 0.471642 12.368654 -5.303843 0.193589 -13.287593 0.707451 9.129790 20.421644 0.000000 0.000000 0.000000 -3.902395 -0.830056 10.431164 1.950232 -0.544477 -10.775969 -0.476331 -6.891626 21.027064 0.000000 0.000000 0.000000 -5.838568 -0.166235 -7.817320 5.402398 -1.033086 -17.325113 -1.144361 -5.312503 30.895935 -0.199057 1.444084 -23.354811 0.000000 0.000000 0.000000 -13.203153 0.661344 -0.908241 -51.160747 -42.045356 10.230579 130.184697 -74.862297 -108.658276 0.000000 0.000000 0.000000 -6.316497 11.148701 3.376164 22.872149 57.663720 5.552226 -82.242465 41.589259 -31.809442 0.000000 0.000000 0.000000 
-0.002028 0.963186 -0.058478 1.161740 7.917087 -0.462826 3.165112 0.493545 12.194002 -5.088039 0.209072 -13.321705 1.005981 9.471552 20.394281 0.000000 0.000000 0.000000 -3.776292 -0.802888 10.127055 1.900318 -0.532978 -10.617462 -0.517579 -7.045110 21.146654 0.000000 0.000000 0.000000 -5.810837 -0.156627 -7.830267 5.498314 -1.077954 -17.226988 -0.987373 -5.247220 30.559366 -0.484874 1.602894 -23.453482 0.000000 0.000000 0.000000 -13.012146 0.210179 -0.658100 -51.013793 -43.415678 10.937022 130.334315 -73.787103 -107.737625 0.000000 0.000000 0.000000 -5.622328 11.733930 3.608944 24.627911 57.789685 6.387495 -84.878476 43.933081 -35.350929 0.000000 0.000000 0.000000 
-0.002321 0.963123 -0.060238 1.250508 7.611743 -0.312495 3.175768 0.503898 12.242248 -5.003725 0.220960 -13.293253 1.382613 9.977486 20.595244 0.000000 0.000000 0.000000 -3.776654 -0.801310 10.218466 1.689681 -0.537210 -10.983692 -0.436215 -7.109871 21.832695 0.000000 0.000000 0.000000 -6.012710 -0.168231 -7.965137 5.623689 -1.140481 -17.007811 -0.861360 -5.220110 30.390168 -0.711361 1.722229 -23.571016 0.000000 0.000000 0.000000 -12.767598 -0.070776 -0.484723 -51.189027 -44.982715 11.850922 129.902892 -73.009453 -106.390907 0.000000 0.000000 0.000000 -5.670877 12.270006 3.765983 25.177681 58.071764 6.692837 -87.755626 44.463267 -37.587100 0.000000 0.000000 0.000000 
-0.002683 0.962428 -0.061974 1.202932 7.429501 -0.341894 3.423481 0.470657 12.094019 -4.993260 0.237517 -12.867404 1.801653 10.463585 20.401973 0.000000 0.000000 0.000000 -3.710414 -0.818182 10.387206 1.582460 -0.546480 -11.339196 -0.500530 -7.308589 22.131087 0.000000 0.000000 0.000000 -6.090312 -0.175563 -8.101130 5.557669 -1.143513 -16.738750 -0.761346 -5.390554 30.431160 -1.032909 1.884633 -23.876639 0.000000 0.000000 0.000000 -12.575705 -0.304316 -0.315469 -50.879630 -46.323683 12.468716 126.968435 -72.269192 -102.195263 0.000000 0.000000 0.000000 -5.755976 12.327613 3.786892 25.275956 58.481070 6.749411 -88.983712 44.237713 -38.203134 0.000000 0.000000 0.000000 
-0.002869 0.961814 -0.063558 1.249098 7.484499 -0.144980 3.578571 0.447576 12.118842 -5.006469 0.233414 -12.957407 1.992182 10.728646 20.453070 0.000000 0.000000 0.000000 -3.965144 -0.792627 10.376900 1.516485 -0.562831 -11.768208 -0.682104 -7.656282 22.487718 0.000000 0.000000 0.000000 -6.475629 -0.212962 -8.459578 5.656973 -1.185432 -16.593134 -0.768259 -5.672714 30.622920 -1.261809 1.988292 -24.088966 0.000000 0.000000 0.000000 -12.113216 -0.209000 -0.300167 -51.464427 -47.582966 13.395134 126.514369 -72.246392 -101.512145 0.000000 0.000000 0.000000 -5.856997 12.089541 3.723397 24.352762 58.682147 6.259433 -90.311816 43.723402 -38.659183 0.000000 0.000000 0.000000 
-0.002806 0.961429 -0.065148 1.300593 7.336256 -0.030571 3.696970 0.441244 12.272768 -5.028313 0.220739 -13.536060 2.209111 11.048611 20.715101 0.000000 0.000000 0.000000 -4.090391 -0.776156 10.382576 1.234081 -0.559365 -11.848188 -0.647288 -7.632316 22.526488 0.000000 0.000000 0.000000 -6.417317 -0.208260 -8.588359 5.414812 -1.110061 -16.586227 -0.825374 -5.769366 30.822999 -1.435342 2.072197 -24.321448 0.000000 0.000000 0.000000 -11.540572 -0.335079 -0.190161 -51.660885 -47.984626 13.714461 125.467762 -72.088357 -100.071614 0.000000 0.000000 0.000000 -5.690095 11.857342 3.678068 23.538625 58.569364 5.773594 -91.777566 44.606201 -40.598163 0.000000 0.000000 0.000000 
